<?xml version="1.0" standalone="no"?>
<!DOCTYPE svg PUBLIC "-//W3C//DTD SVG 20010904//EN"
 "http://www.w3.org/TR/2001/REC-SVG-20010904/DTD/svg10.dtd">
<svg version="1.0" xmlns="http://www.w3.org/2000/svg"
 width="192.000000pt" height="192.000000pt" viewBox="0 0 192.000000 192.000000"
 preserveAspectRatio="xMidYMid meet">
<metadata>
Created by potrace 1.14, written by Peter Selinger 2001-2017
</metadata>
<g transform="translate(0.000000,192.000000) scale(0.100000,-0.100000)"
fill="#000000" stroke="none">
<path d="M182 1588 c-9 -12 -47 -130 -55 -173 -4 -23 39 -91 98 -153 22 -24
42 -48 44 -54 4 -13 -58 23 -111 65 -43 32 -41 35 -38 -63 1 -64 8 -71 112
-122 37 -18 67 -36 68 -39 0 -8 -60 5 -117 25 -51 18 -52 16 -22 -72 27 -79
60 -98 214 -119 22 -3 42 -7 44 -9 12 -11 -15 -15 -98 -15 -50 0 -91 -2 -91
-5 0 -9 57 -89 72 -102 8 -6 53 -13 100 -14 88 -3 103 -11 45 -24 -17 -4 -35
-9 -39 -10 -5 -1 -20 -2 -34 -3 -23 -1 -25 -3 -13 -18 33 -40 89 -70 121 -67
45 5 97 14 114 21 19 7 19 -39 -1 -78 -16 -30 -16 -30 19 -44 48 -20 52 -20
107 20 27 19 49 33 49 31 0 -2 -7 -23 -15 -46 -8 -23 -15 -44 -15 -46 0 -10
73 -15 83 -5 39 39 38 -14 -3 -121 -11 -28 -19 -53 -17 -54 1 -1 33 -22 71
-48 l68 -47 73 48 73 47 -23 61 c-24 64 -38 125 -29 125 3 0 14 -5 25 -10 11
-6 35 -8 53 -4 33 6 34 7 24 37 -5 18 -12 40 -15 51 -4 13 6 9 41 -18 54 -41
60 -42 110 -21 34 15 35 16 22 38 -8 12 -16 36 -18 52 -2 25 0 30 17 27 11 -1
48 -6 83 -10 67 -9 75 -6 129 44 14 13 24 26 22 27 -2 2 -31 8 -63 15 -77 15
-89 28 -29 29 27 1 68 2 91 2 47 1 78 25 115 89 l18 31 -78 0 c-43 0 -91 4
-108 10 l-30 9 38 2 c20 2 40 3 45 4 4 1 27 6 52 10 106 19 125 36 156 136 19
62 19 61 -28 44 -24 -8 -63 -19 -88 -24 -40 -7 -43 -7 -26 6 11 8 24 14 29 14
21 0 136 77 141 95 3 11 6 46 6 77 l0 58 -47 -34 c-27 -18 -64 -41 -83 -51
l-35 -17 35 38 c19 21 38 41 41 44 3 3 22 27 43 55 34 46 37 54 31 94 -9 57
-47 163 -61 168 -5 2 -16 -19 -23 -47 -7 -27 -30 -76 -50 -107 -58 -91 -113
-130 -242 -174 -145 -50 -192 -86 -203 -161 -13 -81 -76 -119 -129 -78 -28 23
-36 50 -14 50 7 0 18 -5 24 -11 20 -20 31 -1 22 38 -5 23 -21 50 -40 67 -29
26 -37 28 -87 23 -35 -4 -69 -15 -95 -33 l-41 -27 27 -19 c32 -23 35 -58 7
-83 -45 -41 -122 -7 -135 59 -19 95 -48 117 -249 191 -70 26 -121 58 -164 105
-31 33 -92 158 -92 187 0 25 -12 30 -28 11z m60 -154 c24 -44 103 -121 146
-142 20 -10 80 -34 131 -53 109 -39 171 -88 171 -133 0 -55 58 -116 109 -116
71 0 125 98 74 137 -23 18 27 46 86 47 52 1 84 -18 94 -56 5 -17 2 -19 -18
-14 -57 14 -53 -63 4 -97 45 -26 85 -22 120 14 17 17 32 35 32 40 1 5 3 14 4
19 1 6 3 22 4 36 2 41 57 81 171 125 58 22 120 47 138 57 54 28 117 98 156
173 l36 71 11 -29 c6 -15 14 -48 19 -73 8 -43 7 -48 -33 -100 -59 -78 -169
-185 -214 -208 -21 -11 -62 -27 -91 -35 -71 -22 -108 -45 -138 -89 -15 -20
-45 -46 -68 -57 -94 -45 -380 -47 -480 -2 -26 11 -54 35 -72 60 -28 40 -112
91 -149 91 -61 0 -235 146 -310 258 -26 40 -27 43 -15 94 7 29 17 62 23 72 9
18 11 16 26 -20 9 -21 24 -53 33 -70z m-29 -228 c12 -8 42 -22 67 -32 25 -10
68 -32 95 -50 28 -17 77 -39 110 -48 117 -34 143 -72 43 -61 -35 3 -74 8 -88
11 -62 13 -243 97 -282 132 -12 10 -18 29 -18 55 l0 39 25 -16 c14 -9 35 -22
48 -30z m1533 2 c-4 -27 -13 -48 -26 -58 -44 -33 -204 -109 -245 -116 -16 -2
-37 -7 -47 -10 -28 -8 -138 -13 -138 -5 0 12 52 37 122 60 37 12 82 32 100 45
18 12 67 38 108 58 41 20 84 43 95 52 31 24 36 19 31 -26z m-1491 -178 c22 -4
67 -11 100 -14 33 -3 80 -10 105 -16 25 -5 70 -9 101 -10 48 0 59 -4 84 -30
16 -16 36 -30 44 -30 39 0 -12 -19 -81 -29 -82 -13 -142 -10 -276 15 -114 21
-128 29 -147 82 -19 57 -19 56 8 47 12 -3 40 -10 62 -15z m1447 -27 c-20 -56
-39 -67 -144 -89 -119 -25 -334 -21 -362 7 -6 6 -6 9 2 9 6 0 26 13 44 29 28
24 44 29 108 34 41 3 86 9 100 12 14 3 48 8 75 10 74 7 166 23 174 31 17 16
18 -3 3 -43z m-923 -102 c18 -11 -54 -61 -156 -108 -70 -32 -83 -35 -167 -34
-117 2 -137 6 -158 33 -27 39 -25 41 47 45 39 2 93 10 120 17 28 8 77 17 110
20 87 9 128 17 145 27 19 11 41 11 59 0z m416 -7 c28 -8 77 -17 110 -20 33 -3
89 -12 125 -21 36 -8 93 -16 127 -17 l61 -1 -16 -29 c-23 -38 -46 -45 -159
-47 -95 -2 -100 -1 -185 38 -170 80 -208 138 -63 97z m-325 -5 c0 -14 -120
-137 -170 -174 -58 -42 -116 -64 -192 -72 -47 -4 -61 -2 -83 15 l-26 20 33 7
c76 16 373 175 386 205 4 10 52 9 52 -1z m60 -29 c0 -18 -21 -60 -59 -117 -97
-143 -187 -227 -230 -216 -23 6 -24 8 -6 93 2 8 4 18 4 22 1 3 22 20 49 36 53
34 128 104 186 174 41 51 56 53 56 8z m167 -97 c35 -34 84 -74 108 -89 30 -17
45 -33 46 -47 1 -26 5 -46 14 -69 4 -11 0 -20 -14 -28 -30 -15 -96 32 -164
118 -115 144 -147 207 -123 241 8 10 17 5 40 -25 16 -22 58 -67 93 -101z m6
98 c29 -22 86 -55 127 -75 41 -20 100 -49 130 -65 30 -16 70 -32 88 -36 33 -7
33 -7 15 -27 -15 -17 -26 -19 -78 -14 -77 7 -112 18 -170 52 -54 31 -195 169
-195 190 0 24 29 15 83 -25z m-188 -229 c-22 -75 -48 -116 -87 -135 -42 -20
-59 -13 -48 21 5 15 11 42 14 61 2 18 16 45 29 60 30 32 96 129 99 145 1 6 3
-13 5 -42 3 -31 -3 -77 -12 -110z m144 12 c13 -15 31 -55 40 -90 21 -75 10
-88 -45 -53 -51 31 -93 123 -98 216 -2 26 -1 51 1 56 3 4 21 -17 42 -48 21
-31 48 -67 60 -81z m-133 -401 c-4 -4 -49 25 -88 57 -5 3 1 32 13 65 11 32 22
74 25 93 2 19 14 57 27 83 l22 49 3 -171 c1 -95 0 -174 -2 -176z m62 290 c11
-27 23 -64 26 -83 3 -19 14 -61 25 -92 l19 -57 -46 -30 c-25 -16 -49 -28 -51
-25 -8 7 -7 334 0 334 4 0 16 -21 27 -47z"/>
</g>
</svg>
